<mxfile host="65bd71144e">
    <diagram id="ckX_WYBlTJqlfkCTUH6g" name="Page-1">
        <mxGraphModel dx="1552" dy="516" grid="1" gridSize="10" guides="1" tooltips="1" connect="1" arrows="1" fold="1" page="1" pageScale="1" pageWidth="850" pageHeight="1100" math="0" shadow="0">
            <root>
                <mxCell id="0"/>
                <mxCell id="1" parent="0"/>
                <mxCell id="8" value="fp_unit" style="externalPins=0;recursiveResize=0;shadow=0;dashed=0;align=center;html=1;strokeWidth=1;shape=mxgraph.rtl.abstract.entity;container=1;collapsible=0;kind=sequential;drawPins=0;left=3;right=2;bottom=0;top=0;points=[[0,0.08,0,0,0],[0,0.22,0,0,0],[0,0.36,0,0,0],[0,0.5,0,0,0],[0,0.64,0,0,0],[0,0.78,0,0,0],[0,0.92,0,0,0],[1,0.3,0,0,0],[1,0.5,0,0,0],[1,0.7,0,0,0]];" vertex="1" parent="1">
                    <mxGeometry x="310" y="200" width="210" height="320" as="geometry"/>
                </mxCell>
                <mxCell id="17" value="" style="endArrow=classic;html=1;" edge="1" parent="1">
                    <mxGeometry relative="1" as="geometry">
                        <mxPoint x="520" y="280" as="sourcePoint"/>
                        <mxPoint x="760" y="280" as="targetPoint"/>
                        <Array as="points">
                            <mxPoint x="570" y="280"/>
                        </Array>
                    </mxGeometry>
                </mxCell>
                <mxCell id="18" value="fp_unit_o.fp_exe_o.result" style="edgeLabel;resizable=0;html=1;align=center;verticalAlign=bottom;" connectable="0" vertex="1" parent="17">
                    <mxGeometry relative="1" as="geometry"/>
                </mxCell>
                <mxCell id="19" value="" style="endArrow=classic;html=1;" edge="1" parent="1">
                    <mxGeometry relative="1" as="geometry">
                        <mxPoint x="520" y="359.5" as="sourcePoint"/>
                        <mxPoint x="760" y="360" as="targetPoint"/>
                    </mxGeometry>
                </mxCell>
                <mxCell id="20" value="fp_unit_o.fp_exe_o.flags" style="edgeLabel;resizable=0;html=1;align=center;verticalAlign=bottom;" connectable="0" vertex="1" parent="19">
                    <mxGeometry relative="1" as="geometry"/>
                </mxCell>
                <mxCell id="21" value="" style="endArrow=classic;html=1;" edge="1" parent="1">
                    <mxGeometry relative="1" as="geometry">
                        <mxPoint x="520" y="440" as="sourcePoint"/>
                        <mxPoint x="760" y="440" as="targetPoint"/>
                    </mxGeometry>
                </mxCell>
                <mxCell id="22" value="fp_unit_o.fp_exe_o.ready" style="edgeLabel;resizable=0;html=1;align=center;verticalAlign=bottom;" connectable="0" vertex="1" parent="21">
                    <mxGeometry relative="1" as="geometry"/>
                </mxCell>
                <mxCell id="23" value="" style="endArrow=classic;html=1;" edge="1" parent="1">
                    <mxGeometry relative="1" as="geometry">
                        <mxPoint x="80" y="240" as="sourcePoint"/>
                        <mxPoint x="310" y="240" as="targetPoint"/>
                    </mxGeometry>
                </mxCell>
                <mxCell id="24" value="fp_unit_i.fp_exe_i.data1" style="edgeLabel;resizable=0;html=1;align=center;verticalAlign=bottom;" connectable="0" vertex="1" parent="23">
                    <mxGeometry relative="1" as="geometry"/>
                </mxCell>
                <mxCell id="25" value="" style="endArrow=classic;html=1;" edge="1" parent="1">
                    <mxGeometry relative="1" as="geometry">
                        <mxPoint x="80" y="280" as="sourcePoint"/>
                        <mxPoint x="310" y="280" as="targetPoint"/>
                    </mxGeometry>
                </mxCell>
                <mxCell id="26" value="fp_unit_i.fp_exe_i.data2" style="edgeLabel;resizable=0;html=1;align=center;verticalAlign=bottom;" connectable="0" vertex="1" parent="25">
                    <mxGeometry relative="1" as="geometry"/>
                </mxCell>
                <mxCell id="27" value="" style="endArrow=classic;html=1;" edge="1" parent="1">
                    <mxGeometry relative="1" as="geometry">
                        <mxPoint x="80" y="320" as="sourcePoint"/>
                        <mxPoint x="310" y="320" as="targetPoint"/>
                    </mxGeometry>
                </mxCell>
                <mxCell id="28" value="fp_unit_i.fp_exe_i.data3" style="edgeLabel;resizable=0;html=1;align=center;verticalAlign=bottom;" connectable="0" vertex="1" parent="27">
                    <mxGeometry relative="1" as="geometry"/>
                </mxCell>
                <mxCell id="29" value="" style="endArrow=classic;html=1;" edge="1" parent="1">
                    <mxGeometry relative="1" as="geometry">
                        <mxPoint x="80" y="360" as="sourcePoint"/>
                        <mxPoint x="310" y="360" as="targetPoint"/>
                    </mxGeometry>
                </mxCell>
                <mxCell id="30" value="fp_uni_i.fp_exe_i.op" style="edgeLabel;resizable=0;html=1;align=center;verticalAlign=bottom;" connectable="0" vertex="1" parent="29">
                    <mxGeometry relative="1" as="geometry"/>
                </mxCell>
                <mxCell id="31" value="" style="endArrow=classic;html=1;" edge="1" parent="1">
                    <mxGeometry relative="1" as="geometry">
                        <mxPoint x="80" y="400" as="sourcePoint"/>
                        <mxPoint x="310" y="400" as="targetPoint"/>
                    </mxGeometry>
                </mxCell>
                <mxCell id="32" value="fp_unit_i.fp_exe_i.fmt" style="edgeLabel;resizable=0;html=1;align=center;verticalAlign=bottom;" connectable="0" vertex="1" parent="31">
                    <mxGeometry relative="1" as="geometry"/>
                </mxCell>
                <mxCell id="33" value="" style="endArrow=classic;html=1;" edge="1" parent="1">
                    <mxGeometry relative="1" as="geometry">
                        <mxPoint x="80" y="440" as="sourcePoint"/>
                        <mxPoint x="310" y="440" as="targetPoint"/>
                    </mxGeometry>
                </mxCell>
                <mxCell id="34" value="fp_unit_i.fp_exe_i.rm" style="edgeLabel;resizable=0;html=1;align=center;verticalAlign=bottom;" connectable="0" vertex="1" parent="33">
                    <mxGeometry relative="1" as="geometry"/>
                </mxCell>
                <mxCell id="35" value="" style="endArrow=classic;html=1;" edge="1" parent="1">
                    <mxGeometry relative="1" as="geometry">
                        <mxPoint x="80" y="480" as="sourcePoint"/>
                        <mxPoint x="310" y="480" as="targetPoint"/>
                    </mxGeometry>
                </mxCell>
                <mxCell id="36" value="fp_unit_i.fp_exe_i.enable" style="edgeLabel;resizable=0;html=1;align=center;verticalAlign=bottom;" connectable="0" vertex="1" parent="35">
                    <mxGeometry relative="1" as="geometry"/>
                </mxCell>
            </root>
        </mxGraphModel>
    </diagram>
</mxfile>